<?xml version="1.0" standalone="no"?>
<!DOCTYPE svg PUBLIC "-//W3C//DTD SVG 20010904//EN"
 "http://www.w3.org/TR/2001/REC-SVG-20010904/DTD/svg10.dtd">
<svg version="1.0" xmlns="http://www.w3.org/2000/svg"
 width="225.000000pt" height="225.000000pt" viewBox="0 0 225.000000 225.000000"
 preserveAspectRatio="xMidYMid meet">
<metadata>
Created by potrace 1.11, written by Peter Selinger 2001-2013
</metadata>
<g transform="translate(0.000000,225.000000) scale(0.100000,-0.100000)"
fill="#000000" stroke="none">
<path d="M1323 1645 c-35 -7 -85 -26 -112 -41 -61 -33 -143 -112 -177 -170
-24 -41 -29 -44 -70 -44 -64 0 -146 -35 -204 -87 -52 -47 -110 -134 -110 -165
0 -10 -14 -23 -32 -31 -43 -18 -93 -70 -118 -123 -48 -99 -32 -210 44 -292 78
-85 46 -82 687 -82 654 0 627 -3 720 89 67 67 89 124 89 225 -1 108 -47 195
-135 256 -40 28 -45 35 -45 69 0 64 -37 165 -83 228 -103 139 -285 207 -454
168z m239 -114 c74 -36 133 -94 170 -169 29 -59 33 -76 33 -149 0 -61 3 -83
13 -83 26 0 90 -40 120 -74 91 -103 55 -268 -71 -331 l-51 -25 -538 0 c-517 0
-540 1 -578 20 -53 27 -83 72 -88 135 -7 80 36 143 114 170 34 11 40 19 50 59
36 140 149 223 291 214 l55 -3 17 42 c38 99 110 168 214 205 70 25 184 20 249
-11z"/>
<path d="M837 335 l-77 -155 50 0 49 0 79 155 78 155 -51 0 -50 0 -78 -155z"/>
<path d="M1047 335 l-77 -155 53 0 52 0 78 155 77 155 -53 0 -52 0 -78 -155z"/>
<path d="M1257 335 l-77 -155 53 0 52 0 78 155 77 155 -53 0 -52 0 -78 -155z"/>
<path d="M1543 478 c-5 -7 -42 -77 -81 -155 l-71 -143 52 0 52 0 78 155 77
155 -49 0 c-27 0 -53 -6 -58 -12z"/>
</g>
</svg>
